# xmcd
#
# Track frame offsets: 
#        150
#        21772
#        34606
#        50522
#        68081
#        89282
#        109938
#        122006
#        143040
#        155094
#        175942
#        190958
#
# Disc length: 2700 seconds
#
# Revision: 0
# Processed by: cddbd v1.5.2PL0 Copyright (c) Steve Scherf et al.
# Submitted via: ExactAudioCopy v1.3
#
DISCID=a10a8a0c
DTITLE=Rob Heron and the Tea Pad Orchestra - Something Blue
DYEAR=1900
DGENRE=Country
TTITLE0=Something Blue
TTITLE1=Still go honky tonkin'
TTITLE2=Honest man blues
TTITLE3=Flat tonic water
TTITLE4=Lost and forgotten
TTITLE5=Leftovers
TTITLE6=Hundreds of miles
TTITLE7=Cats and chickens
TTITLE8=Mary can't dance
TTITLE9=Stealin' gene
TTITLE10=Something Blue (Reprise)
TTITLE11=The devil wears a blue tie
EXTD=
EXTT0=
EXTT1=
EXTT2=
EXTT3=
EXTT4=
EXTT5=
EXTT6=
EXTT7=
EXTT8=
EXTT9=
EXTT10=
EXTT11=
PLAYORDER=
